# xmcd CD database file
#
# Track frame offsets:
#	150
#	18945
#	39987
#	61600
#	81315
#	101710
#	122760
#	144980
#	159942
#	179127
#	199367
#	211460
#	235787
#
# Disc length: 3436 seconds
#
# Revision: 5
# Processed by: cddbd v1.5.2PL0 Copyright (c) Steve Scherf et al.
# Submitted via: CDex 1.70beta3
#
DISCID=ae0d6a0d
DTITLE=鈴木聖美 - 主人公(ベスト・セレクション)
DYEAR=1991
DGENRE=Pop
TTITLE0=シンデレラ・リバティ
TTITLE1=TAXI
TTITLE2=ロンリー・チャップリン
TTITLE3=Darlin
TTITLE4=Let Me Cry
TTITLE5=ファンタジー
TTITLE6=夜明けのスターライト
TTITLE7=もしかしてI Love You
TTITLE8=逢ったとたんに
TTITLE9=ふたりの季節
TTITLE10=胸さわぎ
TTITLE11=熱くなれたら
TTITLE12=星のみえる草原
EXTD=YEAR: 1991
EXTT0=
EXTT1=
EXTT2=
EXTT3=
EXTT4=
EXTT5=
EXTT6=
EXTT7=
EXTT8=
EXTT9=
EXTT10=
EXTT11=
EXTT12=
PLAYORDER=
